<mxfile host="Electron" agent="Mozilla/5.0 (Macintosh; Intel Mac OS X 10_15_7) AppleWebKit/537.36 (KHTML, like Gecko) draw.io/26.0.9 Chrome/128.0.6613.186 Electron/32.2.5 Safari/537.36" version="26.0.9">
  <diagram name="Page-1" id="dBuLCFQsL3gTptjGALky">
    <mxGraphModel dx="954" dy="613" grid="1" gridSize="10" guides="1" tooltips="1" connect="1" arrows="1" fold="1" page="1" pageScale="1" pageWidth="850" pageHeight="1100" math="0" shadow="0">
      <root>
        <mxCell id="0" />
        <mxCell id="1" parent="0" />
        <mxCell id="u3Nmi6-fQTHw9-42GvUO-1" value="&lt;u&gt;Init&lt;/u&gt;&lt;div&gt;Setup LEDs, inputs, and outputs&lt;/div&gt;&lt;div&gt;&lt;br&gt;&lt;/div&gt;&lt;div&gt;&lt;br&gt;&lt;/div&gt;" style="strokeWidth=2;html=1;shape=mxgraph.flowchart.document2;whiteSpace=wrap;size=0.25;fillColor=#d5e8d4;strokeColor=#82b366;" vertex="1" parent="1">
          <mxGeometry x="260" y="110" width="100" height="100" as="geometry" />
        </mxCell>
        <mxCell id="u3Nmi6-fQTHw9-42GvUO-5" style="edgeStyle=orthogonalEdgeStyle;rounded=0;orthogonalLoop=1;jettySize=auto;html=1;exitX=0.5;exitY=1;exitDx=0;exitDy=0;exitPerimeter=0;entryX=0.5;entryY=0;entryDx=0;entryDy=0;" edge="1" parent="1" source="u3Nmi6-fQTHw9-42GvUO-2" target="u3Nmi6-fQTHw9-42GvUO-3">
          <mxGeometry relative="1" as="geometry" />
        </mxCell>
        <mxCell id="u3Nmi6-fQTHw9-42GvUO-2" value="HeartbeatLED" style="strokeWidth=2;html=1;shape=mxgraph.flowchart.terminator;whiteSpace=wrap;fillColor=#ffe6cc;strokeColor=#d79b00;" vertex="1" parent="1">
          <mxGeometry x="470" y="120" width="80" height="40" as="geometry" />
        </mxCell>
        <mxCell id="u3Nmi6-fQTHw9-42GvUO-3" value="Toggle LED every 1s" style="rounded=1;whiteSpace=wrap;html=1;absoluteArcSize=1;arcSize=14;strokeWidth=2;fillColor=#dae8fc;strokeColor=#6c8ebf;" vertex="1" parent="1">
          <mxGeometry x="485" y="170" width="50" height="50" as="geometry" />
        </mxCell>
        <mxCell id="u3Nmi6-fQTHw9-42GvUO-4" value="Ret" style="strokeWidth=2;html=1;shape=mxgraph.flowchart.terminator;whiteSpace=wrap;fillColor=#ffe6cc;strokeColor=#d79b00;" vertex="1" parent="1">
          <mxGeometry x="480" y="240" width="60" height="20" as="geometry" />
        </mxCell>
        <mxCell id="u3Nmi6-fQTHw9-42GvUO-7" style="edgeStyle=orthogonalEdgeStyle;rounded=0;orthogonalLoop=1;jettySize=auto;html=1;exitX=0.5;exitY=1;exitDx=0;exitDy=0;entryX=0.5;entryY=0;entryDx=0;entryDy=0;entryPerimeter=0;" edge="1" parent="1" source="u3Nmi6-fQTHw9-42GvUO-3" target="u3Nmi6-fQTHw9-42GvUO-4">
          <mxGeometry relative="1" as="geometry" />
        </mxCell>
        <mxCell id="u3Nmi6-fQTHw9-42GvUO-16" style="edgeStyle=orthogonalEdgeStyle;rounded=0;orthogonalLoop=1;jettySize=auto;html=1;exitX=0.5;exitY=1;exitDx=0;exitDy=0;exitPerimeter=0;entryX=0.5;entryY=0;entryDx=0;entryDy=0;" edge="1" parent="1" source="u3Nmi6-fQTHw9-42GvUO-8" target="u3Nmi6-fQTHw9-42GvUO-13">
          <mxGeometry relative="1" as="geometry" />
        </mxCell>
        <mxCell id="u3Nmi6-fQTHw9-42GvUO-8" value="System" style="strokeWidth=2;html=1;shape=mxgraph.flowchart.terminator;whiteSpace=wrap;fillColor=#ffe6cc;strokeColor=#d79b00;" vertex="1" parent="1">
          <mxGeometry x="170" y="240" width="80" height="40" as="geometry" />
        </mxCell>
        <mxCell id="u3Nmi6-fQTHw9-42GvUO-9" value="Has unlock code been entered?" style="strokeWidth=2;html=1;shape=mxgraph.flowchart.decision;whiteSpace=wrap;fillColor=#fff2cc;strokeColor=#d6b656;" vertex="1" parent="1">
          <mxGeometry x="115" y="360" width="190" height="50" as="geometry" />
        </mxCell>
        <mxCell id="u3Nmi6-fQTHw9-42GvUO-11" style="edgeStyle=orthogonalEdgeStyle;rounded=0;orthogonalLoop=1;jettySize=auto;html=1;exitX=0;exitY=0.5;exitDx=0;exitDy=0;exitPerimeter=0;entryX=0;entryY=0.5;entryDx=0;entryDy=0;" edge="1" parent="1" source="u3Nmi6-fQTHw9-42GvUO-9" target="u3Nmi6-fQTHw9-42GvUO-13">
          <mxGeometry relative="1" as="geometry" />
        </mxCell>
        <mxCell id="u3Nmi6-fQTHw9-42GvUO-12" value="No" style="edgeLabel;html=1;align=center;verticalAlign=middle;resizable=0;points=[];" vertex="1" connectable="0" parent="u3Nmi6-fQTHw9-42GvUO-11">
          <mxGeometry x="-0.1375" y="2" relative="1" as="geometry">
            <mxPoint as="offset" />
          </mxGeometry>
        </mxCell>
        <mxCell id="u3Nmi6-fQTHw9-42GvUO-13" value="Locked state" style="rounded=1;whiteSpace=wrap;html=1;absoluteArcSize=1;arcSize=14;strokeWidth=2;fillColor=#dae8fc;strokeColor=#6c8ebf;" vertex="1" parent="1">
          <mxGeometry x="185" y="300" width="50" height="50" as="geometry" />
        </mxCell>
        <mxCell id="u3Nmi6-fQTHw9-42GvUO-17" style="edgeStyle=orthogonalEdgeStyle;rounded=0;orthogonalLoop=1;jettySize=auto;html=1;exitX=0.5;exitY=1;exitDx=0;exitDy=0;entryX=0.5;entryY=0;entryDx=0;entryDy=0;entryPerimeter=0;" edge="1" parent="1" source="u3Nmi6-fQTHw9-42GvUO-13" target="u3Nmi6-fQTHw9-42GvUO-9">
          <mxGeometry relative="1" as="geometry" />
        </mxCell>
        <mxCell id="u3Nmi6-fQTHw9-42GvUO-18" value="LEDStatus" style="strokeWidth=2;html=1;shape=mxgraph.flowchart.terminator;whiteSpace=wrap;fillColor=#ffe6cc;strokeColor=#d79b00;" vertex="1" parent="1">
          <mxGeometry x="345" y="250" width="80" height="40" as="geometry" />
        </mxCell>
        <mxCell id="u3Nmi6-fQTHw9-42GvUO-21" value="No" style="edgeStyle=orthogonalEdgeStyle;rounded=0;orthogonalLoop=1;jettySize=auto;html=1;" edge="1" parent="1" source="u3Nmi6-fQTHw9-42GvUO-19" target="u3Nmi6-fQTHw9-42GvUO-20">
          <mxGeometry relative="1" as="geometry" />
        </mxCell>
        <mxCell id="u3Nmi6-fQTHw9-42GvUO-29" style="edgeStyle=orthogonalEdgeStyle;rounded=0;orthogonalLoop=1;jettySize=auto;html=1;exitX=1;exitY=0.5;exitDx=0;exitDy=0;exitPerimeter=0;entryX=0;entryY=0.5;entryDx=0;entryDy=0;" edge="1" parent="1" source="u3Nmi6-fQTHw9-42GvUO-19" target="u3Nmi6-fQTHw9-42GvUO-25">
          <mxGeometry relative="1" as="geometry" />
        </mxCell>
        <mxCell id="u3Nmi6-fQTHw9-42GvUO-30" value="Yes" style="edgeLabel;html=1;align=center;verticalAlign=middle;resizable=0;points=[];" vertex="1" connectable="0" parent="u3Nmi6-fQTHw9-42GvUO-29">
          <mxGeometry x="-0.36" y="-1" relative="1" as="geometry">
            <mxPoint as="offset" />
          </mxGeometry>
        </mxCell>
        <mxCell id="u3Nmi6-fQTHw9-42GvUO-19" value="Is Locked?" style="strokeWidth=2;html=1;shape=mxgraph.flowchart.decision;whiteSpace=wrap;fillColor=#fff2cc;strokeColor=#d6b656;" vertex="1" parent="1">
          <mxGeometry x="335" y="310" width="100" height="50" as="geometry" />
        </mxCell>
        <mxCell id="u3Nmi6-fQTHw9-42GvUO-23" value="" style="edgeStyle=orthogonalEdgeStyle;rounded=0;orthogonalLoop=1;jettySize=auto;html=1;" edge="1" parent="1" source="u3Nmi6-fQTHw9-42GvUO-20">
          <mxGeometry relative="1" as="geometry">
            <mxPoint x="385" y="450" as="targetPoint" />
          </mxGeometry>
        </mxCell>
        <mxCell id="u3Nmi6-fQTHw9-42GvUO-24" value="No" style="edgeLabel;html=1;align=center;verticalAlign=middle;resizable=0;points=[];" vertex="1" connectable="0" parent="u3Nmi6-fQTHw9-42GvUO-23">
          <mxGeometry x="-0.075" relative="1" as="geometry">
            <mxPoint as="offset" />
          </mxGeometry>
        </mxCell>
        <mxCell id="u3Nmi6-fQTHw9-42GvUO-28" style="edgeStyle=orthogonalEdgeStyle;rounded=0;orthogonalLoop=1;jettySize=auto;html=1;exitX=1;exitY=0.5;exitDx=0;exitDy=0;exitPerimeter=0;entryX=0;entryY=0.5;entryDx=0;entryDy=0;" edge="1" parent="1" source="u3Nmi6-fQTHw9-42GvUO-20" target="u3Nmi6-fQTHw9-42GvUO-26">
          <mxGeometry relative="1" as="geometry" />
        </mxCell>
        <mxCell id="u3Nmi6-fQTHw9-42GvUO-32" value="yes" style="edgeLabel;html=1;align=center;verticalAlign=middle;resizable=0;points=[];" vertex="1" connectable="0" parent="u3Nmi6-fQTHw9-42GvUO-28">
          <mxGeometry x="-0.2" y="3" relative="1" as="geometry">
            <mxPoint as="offset" />
          </mxGeometry>
        </mxCell>
        <mxCell id="u3Nmi6-fQTHw9-42GvUO-20" value="Is Unlocked?" style="strokeWidth=2;html=1;shape=mxgraph.flowchart.decision;whiteSpace=wrap;fillColor=#fff2cc;strokeColor=#d6b656;" vertex="1" parent="1">
          <mxGeometry x="335" y="380" width="100" height="50" as="geometry" />
        </mxCell>
        <mxCell id="u3Nmi6-fQTHw9-42GvUO-25" value="Set Red" style="rounded=1;whiteSpace=wrap;html=1;absoluteArcSize=1;arcSize=14;strokeWidth=2;fillColor=#dae8fc;strokeColor=#6c8ebf;" vertex="1" parent="1">
          <mxGeometry x="460" y="310" width="50" height="50" as="geometry" />
        </mxCell>
        <mxCell id="u3Nmi6-fQTHw9-42GvUO-26" value="Set Blue" style="rounded=1;whiteSpace=wrap;html=1;absoluteArcSize=1;arcSize=14;strokeWidth=2;fillColor=#dae8fc;strokeColor=#6c8ebf;" vertex="1" parent="1">
          <mxGeometry x="460" y="380" width="50" height="50" as="geometry" />
        </mxCell>
        <mxCell id="u3Nmi6-fQTHw9-42GvUO-27" value="Set yellow" style="rounded=1;whiteSpace=wrap;html=1;absoluteArcSize=1;arcSize=14;strokeWidth=2;fillColor=#dae8fc;strokeColor=#6c8ebf;" vertex="1" parent="1">
          <mxGeometry x="360" y="450" width="50" height="50" as="geometry" />
        </mxCell>
        <mxCell id="u3Nmi6-fQTHw9-42GvUO-33" value="Ret" style="strokeWidth=2;html=1;shape=mxgraph.flowchart.terminator;whiteSpace=wrap;fillColor=#ffe6cc;strokeColor=#d79b00;" vertex="1" parent="1">
          <mxGeometry x="355" y="530" width="60" height="20" as="geometry" />
        </mxCell>
        <mxCell id="u3Nmi6-fQTHw9-42GvUO-34" style="edgeStyle=orthogonalEdgeStyle;rounded=0;orthogonalLoop=1;jettySize=auto;html=1;exitX=0.5;exitY=1;exitDx=0;exitDy=0;entryX=0.5;entryY=0;entryDx=0;entryDy=0;entryPerimeter=0;" edge="1" parent="1" source="u3Nmi6-fQTHw9-42GvUO-27" target="u3Nmi6-fQTHw9-42GvUO-33">
          <mxGeometry relative="1" as="geometry" />
        </mxCell>
        <mxCell id="u3Nmi6-fQTHw9-42GvUO-35" style="edgeStyle=orthogonalEdgeStyle;rounded=0;orthogonalLoop=1;jettySize=auto;html=1;exitX=0.5;exitY=1;exitDx=0;exitDy=0;entryX=1;entryY=0.5;entryDx=0;entryDy=0;entryPerimeter=0;" edge="1" parent="1" source="u3Nmi6-fQTHw9-42GvUO-26" target="u3Nmi6-fQTHw9-42GvUO-33">
          <mxGeometry relative="1" as="geometry" />
        </mxCell>
        <mxCell id="u3Nmi6-fQTHw9-42GvUO-37" style="edgeStyle=orthogonalEdgeStyle;rounded=0;orthogonalLoop=1;jettySize=auto;html=1;exitX=0.5;exitY=1;exitDx=0;exitDy=0;entryX=1;entryY=0.5;entryDx=0;entryDy=0;entryPerimeter=0;" edge="1" parent="1" source="u3Nmi6-fQTHw9-42GvUO-25" target="u3Nmi6-fQTHw9-42GvUO-33">
          <mxGeometry relative="1" as="geometry">
            <Array as="points">
              <mxPoint x="520" y="360" />
              <mxPoint x="520" y="540" />
            </Array>
          </mxGeometry>
        </mxCell>
        <mxCell id="u3Nmi6-fQTHw9-42GvUO-38" style="edgeStyle=orthogonalEdgeStyle;rounded=0;orthogonalLoop=1;jettySize=auto;html=1;exitX=0.5;exitY=1;exitDx=0;exitDy=0;exitPerimeter=0;entryX=0.5;entryY=0;entryDx=0;entryDy=0;entryPerimeter=0;" edge="1" parent="1" source="u3Nmi6-fQTHw9-42GvUO-18" target="u3Nmi6-fQTHw9-42GvUO-19">
          <mxGeometry relative="1" as="geometry" />
        </mxCell>
      </root>
    </mxGraphModel>
  </diagram>
</mxfile>
